<svg xmlns="http://www.w3.org/2000/svg" width="1280" height="360" viewBox="0 0 1280 360">
  <defs>
    <linearGradient id="bg" x1="0" y1="0" x2="1" y2="1">
      <stop offset="0" stop-color="#0B1220"/>
      <stop offset="0.45" stop-color="#111B2E"/>
      <stop offset="1" stop-color="#0B1220"/>
    </linearGradient>
    <linearGradient id="accent" x1="0" y1="0" x2="1" y2="0">
      <stop offset="0" stop-color="#60A5FA"/>
      <stop offset="0.5" stop-color="#A78BFA"/>
      <stop offset="1" stop-color="#34D399"/>
    </linearGradient>
    <filter id="shadow" x="-20%" y="-20%" width="140%" height="140%">
      <feDropShadow dx="0" dy="18" stdDeviation="18" flood-color="#000000" flood-opacity="0.35"/>
    </filter>
    <filter id="glow" x="-20%" y="-20%" width="140%" height="140%">
      <feGaussianBlur stdDeviation="14" result="b"/>
      <feColorMatrix in="b" type="matrix" values="
        1 0 0 0 0
        0 1 0 0 0
        0 0 1 0 0
        0 0 0 0.65 0" result="g"/>
      <feMerge>
        <feMergeNode in="g"/>
        <feMergeNode in="SourceGraphic"/>
      </feMerge>
    </filter>
  </defs>

  <rect width="1280" height="360" rx="28" fill="url(#bg)"/>

  <g opacity="0.35" filter="url(#glow)">
    <circle cx="1040" cy="110" r="140" fill="#60A5FA"/>
    <circle cx="1120" cy="250" r="120" fill="#A78BFA"/>
    <circle cx="930" cy="270" r="110" fill="#34D399"/>
  </g>

  <g opacity="0.25">
    <path d="M70 280 C190 210, 320 310, 450 255 C585 197, 740 290, 880 240 C1005 196, 1130 240, 1220 210" fill="none" stroke="url(#accent)" stroke-width="10"/>
  </g>

  <g transform="translate(72 62)" filter="url(#shadow)">
    <rect x="0" y="0" width="520" height="236" rx="22" fill="#0F172A" opacity="0.92" stroke="#1F2A44"/>
    <g transform="translate(28 28)">
      <rect x="0" y="0" width="74" height="74" rx="18" fill="url(#accent)"/>
      <path d="M20 28h34v30H20z" fill="#0B1220" opacity="0.9"/>
      <path d="M26 22h22" stroke="#0B1220" stroke-width="6" stroke-linecap="round" opacity="0.9"/>
      <path d="M26 66h22" stroke="#0B1220" stroke-width="6" stroke-linecap="round" opacity="0.9"/>
      <path d="M70 18c18 8 30 24 30 43 0 26-20 47-47 47" fill="none" stroke="#93C5FD" stroke-width="8" stroke-linecap="round" opacity="0.9"/>
      <text x="98" y="34" font-family="ui-sans-serif, system-ui, -apple-system, Segoe UI, Roboto, Arial" font-size="34" font-weight="800" fill="#E5E7EB">Iconify Downloader</text>
      <text x="98" y="64" font-family="ui-sans-serif, system-ui, -apple-system, Segoe UI, Roboto, Arial" font-size="16" font-weight="600" fill="#94A3B8">Electron + Vite • SVG / JSON • Presets • ZIP • History</text>

      <g transform="translate(0 104)">
        <rect x="0" y="0" width="464" height="104" rx="18" fill="#0B1220" opacity="0.7" stroke="#1F2A44"/>
        <g transform="translate(16 18)">
          <rect x="0" y="0" width="120" height="28" rx="10" fill="#111827" stroke="#24324D"/>
          <text x="16" y="20" font-family="ui-sans-serif, system-ui, -apple-system, Segoe UI, Roboto, Arial" font-size="12" font-weight="700" fill="#E5E7EB">Collections</text>
          <rect x="132" y="0" width="128" height="28" rx="10" fill="#111827" stroke="#24324D"/>
          <text x="148" y="20" font-family="ui-sans-serif, system-ui, -apple-system, Segoe UI, Roboto, Arial" font-size="12" font-weight="700" fill="#E5E7EB">Favorites</text>
          <rect x="272" y="0" width="176" height="28" rx="10" fill="#111827" stroke="#24324D"/>
          <text x="288" y="20" font-family="ui-sans-serif, system-ui, -apple-system, Segoe UI, Roboto, Arial" font-size="12" font-weight="700" fill="#E5E7EB">Grouped Like Site</text>

          <rect x="0" y="44" width="212" height="36" rx="12" fill="#0F172A" stroke="#24324D"/>
          <path d="M18 62h18" stroke="#60A5FA" stroke-width="4" stroke-linecap="round"/>
          <path d="M18 54h28" stroke="#A78BFA" stroke-width="4" stroke-linecap="round"/>
          <text x="54" y="67" font-family="ui-sans-serif, system-ui, -apple-system, Segoe UI, Roboto, Arial" font-size="12" font-weight="700" fill="#CBD5E1">Download as ZIP</text>

          <rect x="228" y="44" width="220" height="36" rx="12" fill="#0F172A" stroke="#24324D"/>
          <path d="M246 54c10 0 18 8 18 18" fill="none" stroke="#34D399" stroke-width="4" stroke-linecap="round"/>
          <path d="M246 72h28" stroke="#34D399" stroke-width="4" stroke-linecap="round"/>
          <text x="282" y="67" font-family="ui-sans-serif, system-ui, -apple-system, Segoe UI, Roboto, Arial" font-size="12" font-weight="700" fill="#CBD5E1">Re-run Downloads</text>
        </g>
      </g>
    </g>
  </g>

  <g transform="translate(650 78)">
    <text x="0" y="0" font-family="ui-sans-serif, system-ui, -apple-system, Segoe UI, Roboto, Arial" font-size="20" font-weight="800" fill="#E2E8F0">Download, customize, and organize Iconify icons.</text>
    <text x="0" y="34" font-family="ui-sans-serif, system-ui, -apple-system, Segoe UI, Roboto, Arial" font-size="14" font-weight="600" fill="#94A3B8">SVG with optional monochrome colorize • JSON collections • Folder by prefix • ZIP export</text>

    <g transform="translate(0 72)">
      <rect x="0" y="0" width="560" height="178" rx="22" fill="#0F172A" opacity="0.78" stroke="#1F2A44"/>
      <g transform="translate(22 22)">
        <rect x="0" y="0" width="170" height="40" rx="14" fill="#0B1220" stroke="#24324D"/>
        <text x="14" y="26" font-family="ui-sans-serif, system-ui, -apple-system, Segoe UI, Roboto, Arial" font-size="13" font-weight="800" fill="#E5E7EB">Ctrl + K</text>
        <text x="84" y="26" font-family="ui-sans-serif, system-ui, -apple-system, Segoe UI, Roboto, Arial" font-size="13" font-weight="700" fill="#94A3B8">Focus Search</text>

        <rect x="190" y="0" width="170" height="40" rx="14" fill="#0B1220" stroke="#24324D"/>
        <text x="204" y="26" font-family="ui-sans-serif, system-ui, -apple-system, Segoe UI, Roboto, Arial" font-size="13" font-weight="800" fill="#E5E7EB">Ctrl + D</text>
        <text x="270" y="26" font-family="ui-sans-serif, system-ui, -apple-system, Segoe UI, Roboto, Arial" font-size="13" font-weight="700" fill="#94A3B8">Download</text>

        <rect x="380" y="0" width="158" height="40" rx="14" fill="#0B1220" stroke="#24324D"/>
        <text x="394" y="26" font-family="ui-sans-serif, system-ui, -apple-system, Segoe UI, Roboto, Arial" font-size="13" font-weight="800" fill="#E5E7EB">Ctrl + ,</text>
        <text x="456" y="26" font-family="ui-sans-serif, system-ui, -apple-system, Segoe UI, Roboto, Arial" font-size="13" font-weight="700" fill="#94A3B8">Settings</text>

        <g transform="translate(0 66)">
          <rect x="0" y="0" width="516" height="72" rx="18" fill="#0B1220" stroke="#24324D"/>
          <rect x="16" y="16" width="120" height="40" rx="14" fill="url(#accent)"/>
          <text x="32" y="42" font-family="ui-sans-serif, system-ui, -apple-system, Segoe UI, Roboto, Arial" font-size="13" font-weight="900" fill="#0B1220">Presets</text>
          <text x="156" y="31" font-family="ui-sans-serif, system-ui, -apple-system, Segoe UI, Roboto, Arial" font-size="13" font-weight="800" fill="#E5E7EB">Brand Blue • Brand Purple • Original</text>
          <text x="156" y="52" font-family="ui-sans-serif, system-ui, -apple-system, Segoe UI, Roboto, Arial" font-size="12" font-weight="700" fill="#94A3B8">One-click options to standardize exports</text>
        </g>
      </g>
    </g>
  </g>
</svg>
